<svg width="287" height="38" viewBox="0 0 287 38" fill="none" xmlns="http://www.w3.org/2000/svg">
<path d="M53.1968 29.64V9.66724H59.4738L64.1121 20.8848H64.6398L69.2225 9.66724H75.6106V29.64H71.1112V14.2364L66.3896 25.5908H62.0568L57.363 14.3458V29.64H53.1968ZM84.2399 30.0231C82.592 30.0231 81.2588 29.6036 80.2404 28.7645C79.2405 27.9255 78.7406 26.7399 78.7406 25.2077C78.7406 24.1133 79.0276 23.2196 79.6016 22.5264C80.1756 21.8151 80.9811 21.2952 82.018 20.9669C83.0549 20.6204 84.2492 20.4471 85.6008 20.4471H88.3505V20.3924C88.3505 18.8602 87.5728 18.0941 86.0174 18.0941C85.6101 18.0941 85.0731 18.1124 84.4065 18.1488C83.74 18.1671 83.0456 18.1944 82.3235 18.2309C81.6199 18.2492 80.9903 18.2765 80.4348 18.313V14.6194C81.0829 14.5647 81.8791 14.5191 82.8234 14.4826C83.7677 14.4279 84.638 14.4005 85.4342 14.4005C87.7672 14.4005 89.5448 14.893 90.7668 15.878C92.0074 16.8447 92.6277 18.3677 92.6277 20.4471V29.64H89.1004V26.822C88.7671 27.8616 88.1931 28.6551 87.3784 29.2023C86.5637 29.7495 85.5175 30.0231 84.2399 30.0231ZM85.5731 26.9861C86.2952 26.9861 86.9247 26.7855 87.4617 26.3842C87.9987 25.9829 88.2949 25.2168 88.3505 24.086V22.8821H85.5731C84.7954 22.8821 84.1936 23.0736 83.7677 23.4567C83.3604 23.8397 83.1567 24.3413 83.1567 24.9615C83.1567 25.5634 83.3604 26.0559 83.7677 26.4389C84.1936 26.8037 84.7954 26.9861 85.5731 26.9861ZM96.398 29.64V14.6468H99.9254V19.7357C100.092 18.0394 100.62 16.7352 101.509 15.8232C102.416 14.9112 103.647 14.4552 105.202 14.4552H105.786V18.2309H104.675C103.434 18.2309 102.481 18.5592 101.814 19.2159C101.166 19.8725 100.842 20.8028 100.842 22.0066V29.64H96.398ZM113.866 30.1052C111.699 30.1052 110.005 29.6674 108.783 28.7919C107.561 27.9164 106.913 26.6852 106.839 25.0983H110.783C110.838 25.5725 111.125 26.0012 111.644 26.3842C112.162 26.749 112.931 26.9314 113.949 26.9314C114.708 26.9314 115.347 26.8037 115.865 26.5484C116.384 26.293 116.643 25.91 116.643 25.3992C116.643 24.9615 116.449 24.6149 116.06 24.3596C115.671 24.086 114.977 23.8944 113.977 23.785L112.783 23.6756C110.949 23.4749 109.57 22.9733 108.644 22.1708C107.737 21.3682 107.283 20.3194 107.283 19.0244C107.283 17.9664 107.552 17.0818 108.089 16.3704C108.644 15.6591 109.394 15.121 110.338 14.7562C111.283 14.3914 112.366 14.209 113.588 14.209C115.551 14.209 117.125 14.6376 118.31 15.4949C119.513 16.334 120.152 17.556 120.226 19.1612H116.282C116.208 18.6869 115.94 18.2765 115.477 17.93C115.032 17.5834 114.384 17.4101 113.532 17.4101C112.847 17.4101 112.301 17.5378 111.894 17.7932C111.486 18.0485 111.283 18.3951 111.283 18.8328C111.283 19.2524 111.459 19.5716 111.81 19.7904C112.162 20.0093 112.736 20.1644 113.532 20.2556L114.727 20.365C116.578 20.5656 118.023 21.0855 119.059 21.9245C120.115 22.7453 120.643 23.8397 120.643 25.2077C120.643 26.7216 120.032 27.9164 118.81 28.7919C117.587 29.6674 115.94 30.1052 113.866 30.1052Z" fill="black"/>
<path d="M131.424 29.7221V9.61249H138.146C139.923 9.61249 141.46 9.88609 142.756 10.4333C144.052 10.9805 145.126 11.7192 145.978 12.6494C146.83 13.5797 147.459 14.6376 147.867 15.8232C148.274 16.9906 148.478 18.1944 148.478 19.4347V19.7904C148.478 20.9942 148.283 22.189 147.895 23.3746C147.506 24.5419 146.895 25.609 146.061 26.5757C145.228 27.5242 144.154 28.2902 142.84 28.8739C141.543 29.4394 139.979 29.7221 138.146 29.7221H131.424ZM138.257 10.4333H132.313V28.9013H138.257C139.905 28.9013 141.312 28.6459 142.479 28.1352C143.664 27.6062 144.626 26.904 145.367 26.0285C146.126 25.1347 146.682 24.1406 147.034 23.0462C147.404 21.9336 147.589 20.7936 147.589 19.6262C147.589 18.4224 147.404 17.2733 147.034 16.1789C146.663 15.0662 146.089 14.0813 145.312 13.224C144.552 12.3485 143.59 11.6645 142.423 11.172C141.257 10.6795 139.868 10.4333 138.257 10.4333ZM156.83 30.0231C155.923 30.0231 155.08 29.8589 154.303 29.5306C153.543 29.184 152.932 28.6824 152.47 28.0258C152.025 27.3691 151.803 26.5666 151.803 25.6181C151.803 24.323 152.257 23.2925 153.164 22.5264C154.09 21.7603 155.386 21.3773 157.052 21.3773H161.857V20.0093C161.857 18.7872 161.524 17.8296 160.857 17.1365C160.209 16.4434 159.089 16.0968 157.497 16.0968C156.756 16.0968 156.052 16.1242 155.386 16.1789C154.719 16.2154 154.117 16.2792 153.581 16.3704V15.5496C154.117 15.4584 154.691 15.3946 155.303 15.3581C155.914 15.3034 156.497 15.276 157.052 15.276C158.497 15.276 159.626 15.4675 160.441 15.8506C161.274 16.2336 161.866 16.7899 162.218 17.5195C162.57 18.2491 162.746 19.152 162.746 20.2282V29.64H162.024V26.5757C161.654 27.743 160.987 28.6094 160.024 29.1749C159.08 29.7403 158.015 30.0231 156.83 30.0231ZM156.886 29.257C157.663 29.257 158.422 29.111 159.163 28.8192C159.904 28.5274 160.524 28.0349 161.024 27.3418C161.542 26.6304 161.82 25.6819 161.857 24.4963V22.1434H156.886C155.534 22.1434 154.497 22.4626 153.775 23.101C153.053 23.7394 152.692 24.5875 152.692 25.6454C152.692 26.7763 153.09 27.661 153.886 28.2994C154.682 28.9378 155.682 29.257 156.886 29.257ZM172.707 30.0231C170.948 30.0231 169.605 29.6218 168.68 28.8192C167.754 27.9984 167.291 26.977 167.291 25.7549H168.18C168.18 26.7034 168.532 27.515 169.235 28.1899C169.957 28.8648 171.115 29.2022 172.707 29.2022C174.299 29.2022 175.447 28.8648 176.151 28.1899C176.873 27.4968 177.234 26.6851 177.234 25.7549C177.234 24.8246 176.882 24.1133 176.179 23.6208C175.475 23.1283 174.596 22.8274 173.54 22.7179L171.763 22.5264C170.559 22.3805 169.615 21.9974 168.93 21.3773C168.245 20.7571 167.902 19.9363 167.902 18.9149C167.902 18.2035 168.087 17.556 168.457 16.9723C168.828 16.3704 169.374 15.887 170.096 15.5222C170.818 15.1574 171.689 14.975 172.707 14.975C174.133 14.975 175.29 15.3398 176.179 16.0694C177.067 16.799 177.512 17.7475 177.512 18.9149H176.623C176.642 18.0211 176.308 17.2824 175.623 16.6987C174.938 16.0968 173.966 15.7958 172.707 15.7958C171.355 15.7958 170.365 16.115 169.735 16.7534C169.106 17.3918 168.791 18.1306 168.791 18.9696C168.791 19.6627 169.05 20.2738 169.568 20.8027C170.087 21.3134 170.846 21.6235 171.846 21.733L173.623 21.9245C174.883 22.0522 175.947 22.4352 176.817 23.0736C177.688 23.6938 178.123 24.6058 178.123 25.8096C178.123 26.977 177.66 27.971 176.734 28.7918C175.808 29.6126 174.466 30.0231 172.707 30.0231ZM182.89 29.64V9.66721H183.779V18.3403C184.168 17.3371 184.788 16.5346 185.64 15.9326C186.491 15.3307 187.565 15.0298 188.861 15.0298H188.917C190.732 15.0298 192.102 15.5861 193.028 16.6987C193.972 17.8114 194.444 19.2797 194.444 21.1037V29.64H193.555V20.8848C193.555 19.3891 193.148 18.1762 192.333 17.2459C191.537 16.3157 190.371 15.8506 188.834 15.8506C187.278 15.8506 186.047 16.3248 185.14 17.2733C184.232 18.2035 183.779 19.4256 183.779 20.9395V29.64H182.89ZM207.303 30.0778C205.71 30.0778 204.368 29.6674 203.275 28.8466C202.202 28.0258 201.442 27.0134 200.998 25.8096V29.64H200.276V9.66721H201.165V18.8875C201.646 17.7384 202.405 16.799 203.442 16.0694C204.498 15.3398 205.784 14.975 207.303 14.975C208.414 14.975 209.404 15.1848 210.275 15.6043C211.145 16.0238 211.876 16.5893 212.469 17.3006C213.061 18.012 213.506 18.8146 213.802 19.7083C214.117 20.5838 214.274 21.4958 214.274 22.4443V22.6085C214.274 23.5022 214.126 24.3869 213.83 25.2624C213.533 26.1379 213.089 26.9405 212.497 27.6701C211.923 28.3997 211.2 28.9834 210.33 29.4211C209.46 29.8589 208.451 30.0778 207.303 30.0778ZM207.247 29.257C208.58 29.257 209.701 28.9378 210.608 28.2994C211.534 27.6427 212.228 26.8037 212.691 25.7822C213.154 24.7426 213.385 23.6573 213.385 22.5264C213.385 21.3226 213.145 20.2099 212.663 19.1885C212.182 18.167 211.478 17.3462 210.552 16.7261C209.645 16.1059 208.543 15.7958 207.247 15.7958C206.025 15.7958 204.951 16.0603 204.025 16.5893C203.118 17.1182 202.405 17.8387 201.887 18.7507C201.368 19.6445 201.109 20.6568 201.109 21.7877V23.2651C201.109 24.323 201.359 25.308 201.859 26.22C202.359 27.132 203.063 27.8707 203.97 28.4362C204.896 28.9834 205.988 29.257 207.247 29.257ZM225.074 30.0778C223.889 30.0778 222.833 29.868 221.907 29.4485C221 29.0107 220.232 28.4362 219.602 27.7248C218.991 27.0134 218.519 26.22 218.186 25.3445C217.871 24.4507 217.713 23.5387 217.713 22.6085V22.4443C217.713 21.4958 217.88 20.5747 218.213 19.681C218.547 18.7872 219.028 17.9938 219.658 17.3006C220.287 16.5893 221.056 16.0238 221.963 15.6043C222.87 15.1848 223.907 14.975 225.074 14.975C226.24 14.975 227.277 15.1848 228.184 15.6043C229.092 16.0238 229.86 16.5893 230.49 17.3006C231.119 17.9938 231.601 18.7872 231.934 19.681C232.267 20.5747 232.434 21.4958 232.434 22.4443V22.6085C232.434 23.5387 232.267 24.4507 231.934 25.3445C231.619 26.22 231.147 27.0134 230.517 27.7248C229.906 28.4362 229.138 29.0107 228.212 29.4485C227.305 29.868 226.259 30.0778 225.074 30.0778ZM225.074 29.257C226.481 29.257 227.657 28.9378 228.601 28.2994C229.564 27.661 230.295 26.831 230.795 25.8096C231.295 24.7882 231.545 23.6938 231.545 22.5264C231.545 21.3226 231.286 20.2099 230.767 19.1885C230.267 18.167 229.536 17.3462 228.573 16.7261C227.61 16.1059 226.444 15.7958 225.074 15.7958C223.722 15.7958 222.555 16.1059 221.574 16.7261C220.611 17.3462 219.871 18.167 219.352 19.1885C218.852 20.2099 218.602 21.3226 218.602 22.5264C218.602 23.6938 218.852 24.7882 219.352 25.8096C219.852 26.831 220.583 27.661 221.546 28.2994C222.509 28.9378 223.685 29.257 225.074 29.257ZM240.858 30.0231C239.951 30.0231 239.108 29.8589 238.33 29.5306C237.571 29.184 236.96 28.6824 236.497 28.0258C236.053 27.3691 235.831 26.5666 235.831 25.6181C235.831 24.323 236.284 23.2925 237.192 22.5264C238.117 21.7603 239.414 21.3773 241.08 21.3773H245.885V20.0093C245.885 18.7872 245.552 17.8296 244.885 17.1365C244.237 16.4434 243.117 16.0968 241.524 16.0968C240.784 16.0968 240.08 16.1242 239.414 16.1789C238.747 16.2154 238.145 16.2792 237.608 16.3704V15.5496C238.145 15.4584 238.719 15.3946 239.33 15.3581C239.941 15.3034 240.525 15.276 241.08 15.276C242.524 15.276 243.654 15.4675 244.468 15.8506C245.302 16.2336 245.894 16.7899 246.246 17.5195C246.598 18.2491 246.774 19.152 246.774 20.2282V29.64H246.052V26.5757C245.681 27.743 245.015 28.6094 244.052 29.1749C243.108 29.7403 242.043 30.0231 240.858 30.0231ZM240.913 29.257C241.691 29.257 242.45 29.111 243.191 28.8192C243.932 28.5274 244.552 28.0349 245.052 27.3418C245.57 26.6304 245.848 25.6819 245.885 24.4963V22.1434H240.913C239.562 22.1434 238.525 22.4626 237.803 23.101C237.081 23.7394 236.719 24.5875 236.719 25.6454C236.719 26.7763 237.118 27.661 237.914 28.2994C238.71 28.9378 239.71 29.257 240.913 29.257ZM252.597 29.64V15.4128H253.319V19.0243C253.634 17.784 254.254 16.8538 255.18 16.2336C256.124 15.6134 257.458 15.3034 259.18 15.3034H259.652V16.1242H258.957C255.31 16.1242 253.486 17.9208 253.486 21.5141V29.64H252.597ZM268.896 30.0778C267.785 30.0778 266.794 29.868 265.924 29.4485C265.054 29.029 264.322 28.4635 263.73 27.7522C263.137 27.0408 262.684 26.2474 262.369 25.3718C262.073 24.4781 261.925 23.557 261.925 22.6085V22.4443C261.925 21.5506 262.073 20.6659 262.369 19.7904C262.665 18.9149 263.1 18.1123 263.674 17.3827C264.267 16.6531 264.998 16.0694 265.868 15.6317C266.739 15.1939 267.748 14.975 268.896 14.975C270.433 14.975 271.72 15.3581 272.757 16.1242C273.793 16.872 274.553 17.8114 275.034 18.9422V9.66721H275.923V29.64H275.201V25.8643C274.756 27.0864 273.988 28.0987 272.895 28.9013C271.803 29.6856 270.47 30.0778 268.896 30.0778ZM268.951 29.257C270.173 29.257 271.247 28.9925 272.173 28.4635C273.099 27.9346 273.812 27.2232 274.312 26.3294C274.83 25.4174 275.09 24.396 275.09 23.2651V21.7877C275.09 20.7298 274.84 19.7448 274.34 18.8328C273.84 17.9208 273.127 17.1912 272.201 16.644C271.294 16.0786 270.211 15.7958 268.951 15.7958C267.618 15.7958 266.498 16.1242 265.591 16.7808C264.683 17.4192 263.989 18.2582 263.508 19.2979C263.045 20.3194 262.813 21.3955 262.813 22.5264C262.813 23.7302 263.054 24.8429 263.535 25.8643C264.017 26.8858 264.711 27.7066 265.619 28.3267C266.544 28.9469 267.655 29.257 268.951 29.257Z" fill="#CE635A"/>
<path d="M19.2876 38C29.9399 38 38.5753 29.4934 38.5753 19C38.5753 8.50659 29.9399 0 19.2876 0C8.63537 0 0 8.50659 0 19C0 29.4934 8.63537 38 19.2876 38Z" fill="url(#paint0_linear)"/>
<defs>
<linearGradient id="paint0_linear" x1="-12.3441" y1="23.56" x2="38.4567" y2="38.4059" gradientUnits="userSpaceOnUse">
<stop offset="0.151791" stop-color="#F1A994"/>
<stop offset="1" stop-color="#BE3930" stop-opacity="0.85"/>
</linearGradient>
</defs>
</svg>
